<?xml version="1.0" standalone="no"?>
<!DOCTYPE svg PUBLIC "-//W3C//DTD SVG 20010904//EN"
 "http://www.w3.org/TR/2001/REC-SVG-20010904/DTD/svg10.dtd">
<svg version="1.0" xmlns="http://www.w3.org/2000/svg"
 width="240.000000pt" height="240.000000pt" viewBox="0 0 240.000000 240.000000"
 preserveAspectRatio="xMidYMid meet">
<metadata>
Created by potrace 1.11, written by Peter Selinger 2001-2013
</metadata>
<g transform="translate(0.000000,240.000000) scale(0.100000,-0.100000)"
fill="#000000" stroke="none">
<path d="M1018 1444 l-3 -286 -37 -34 c-31 -28 -45 -34 -82 -34 -25 0 -56 4
-70 10 -30 11 -66 65 -66 98 0 19 -5 22 -45 22 -44 0 -45 -1 -45 -32 0 -93 81
-166 194 -175 106 -9 186 30 228 110 22 40 23 56 26 325 l4 282 -51 0 -50 0
-3 -286z"/>
</g>
</svg>
