<svg width="150" height="150" viewBox="0 0 150 150" fill="none" xmlns="http://www.w3.org/2000/svg">
<path fill-rule="evenodd" clip-rule="evenodd" d="M134.375 0H15.6249C6.99551 0 0 6.99551 0 15.6249V134.375C0 143.004 6.99551 150 15.6249 150H81.2499V93.75H65.625C63.8991 93.75 62.4999 92.3508 62.4999 90.6249V71.8749C62.4999 70.149 63.8991 68.7498 65.625 68.7498H81.2499V53.1249C81.2499 34.1402 96.6401 18.75 115.625 18.75H128.125C129.851 18.75 131.25 20.1492 131.25 21.8748V40.6248C131.25 42.3507 129.851 43.7499 128.125 43.7499H115.625C110.447 43.7499 106.25 47.9473 106.25 53.1249V68.7498H128.125C128.46 68.7501 128.793 68.8043 129.11 68.9101C130.748 69.4556 131.633 71.2251 131.087 72.8625L124.837 91.6125C124.413 92.8881 123.219 93.7491 121.875 93.75H106.25V150H134.375C143.004 150 150 143.004 150 134.375V15.6249C150 6.99551 143.004 0 134.375 0Z" fill="#8C9FFF"/>
</svg>
