<svg width="110" height="110" viewBox="0 0 110 110" fill="none" xmlns="http://www.w3.org/2000/svg">
<path d="M16 2.5H94C96.8415 2.5 98.8223 2.50194 100.364 2.62794C101.877 2.75155 102.747 2.98199 103.405 3.31745C104.816 4.0365 105.964 5.18386 106.683 6.59507C107.018 7.25346 107.248 8.12268 107.372 9.6356C107.498 11.1777 107.5 13.1585 107.5 16V24V94C107.5 96.8415 107.498 98.8223 107.372 100.364C107.248 101.877 107.018 102.747 106.683 103.405C105.964 104.816 104.816 105.964 103.405 106.683C102.747 107.018 101.877 107.248 100.364 107.372C98.8223 107.498 96.8415 107.5 94 107.5H16C13.1585 107.5 11.1777 107.498 9.6356 107.372C8.12268 107.248 7.25346 107.018 6.59507 106.683C5.18386 105.964 4.0365 104.816 3.31745 103.405C2.98199 102.747 2.75155 101.877 2.62794 100.364C2.50194 98.8223 2.5 96.8415 2.5 94V24V16C2.5 13.1585 2.50194 11.1777 2.62794 9.6356C2.75155 8.12268 2.98199 7.25346 3.31745 6.59507C4.0365 5.18386 5.18386 4.0365 6.59507 3.31745C7.25346 2.98199 8.12268 2.75155 9.6356 2.62794C11.1777 2.50194 13.1585 2.5 16 2.5Z" stroke="black" stroke-width="5"/>
<path d="M33 47L13 67L33 87M77 47L97 67L77 87" stroke="black" stroke-width="5" stroke-linecap="round" stroke-linejoin="round"/>
<path d="M65.3988 43L43 91.0343" stroke="black" stroke-width="5" stroke-linecap="round"/>
<circle cx="11.5" cy="13.5" r="2.5" fill="black"/>
<circle cx="27.5" cy="13.5" r="2.5" fill="black"/>
<circle cx="19.5" cy="13.5" r="2.5" fill="black"/>
<path d="M2.5 25H107.5" stroke="black" stroke-width="5"/>
</svg>
