<svg width="150" height="150" viewBox="0 0 150 150" fill="none" xmlns="http://www.w3.org/2000/svg">
<path d="M136.431 0H13.5687C6.075 0 0 6.075 0 13.5687V136.431C0 143.925 6.075 150 13.5687 150H136.431C143.925 150 150 143.925 150 136.431V13.5687C150 6.075 143.925 0 136.431 0ZM46.4164 129.52C46.4164 131.701 44.6486 133.469 42.4677 133.469H25.659C23.4781 133.469 21.7103 131.701 21.7103 129.52V59.0588C21.7103 56.8779 23.4781 55.1101 25.659 55.1101H42.4677C44.6486 55.1101 46.4164 56.8779 46.4164 59.0588V129.52ZM34.0634 48.4681C25.2444 48.4681 18.095 41.3187 18.095 32.4997C18.095 23.6808 25.2444 16.5314 34.0634 16.5314C42.8823 16.5314 50.0317 23.6808 50.0317 32.4997C50.0317 41.3187 42.8827 48.4681 34.0634 48.4681ZM134.258 129.838C134.258 131.843 132.632 133.469 130.627 133.469H112.59C110.585 133.469 108.96 131.843 108.96 129.838V96.7877C108.96 91.8573 110.406 75.1826 96.075 75.1826C84.9589 75.1826 82.7042 86.5959 82.2514 91.7179V129.838C82.2514 131.843 80.6262 133.469 78.6208 133.469H61.176C59.1711 133.469 57.5454 131.843 57.5454 129.838V58.7407C57.5454 56.7357 59.1711 55.1101 61.176 55.1101H78.6208C80.6258 55.1101 82.2514 56.7357 82.2514 58.7407V64.888C86.3733 58.7022 92.4989 53.9277 105.541 53.9277C134.423 53.9277 134.258 80.9105 134.258 95.7361V129.838Z" fill="#A9ACFF"/>
</svg>
