<svg width="240" height="240" viewBox="0 0 240 240" fill="none" xmlns="http://www.w3.org/2000/svg">
<rect x="20" y="20" width="200" height="200" rx="15" fill="#E5E5E5"/>
<g filter="url(#filter0_dd)">
<rect x="45" y="45" width="150" height="150" rx="15" fill="#E5E5E5"/>
</g>
<path d="M102.037 66.9062H111.461V117.248C111.461 124.051 109.41 129.374 105.309 133.215C101.24 137.056 95.8034 138.977 89 138.977C81.9362 138.977 76.4349 137.17 72.4961 133.557C68.5573 129.943 66.5879 124.882 66.5879 118.371H75.9629C75.9629 122.44 77.0697 125.614 79.2832 127.893C81.5293 130.171 84.7682 131.311 89 131.311C92.8737 131.311 95.9987 130.09 98.375 127.648C100.784 125.207 102.005 121.789 102.037 117.395V66.9062Z" fill="black"/>
<defs>
<filter id="filter0_dd" x="0" y="0" width="240" height="240" filterUnits="userSpaceOnUse" color-interpolation-filters="sRGB">
<feFlood flood-opacity="0" result="BackgroundImageFix"/>
<feColorMatrix in="SourceAlpha" type="matrix" values="0 0 0 0 0 0 0 0 0 0 0 0 0 0 0 0 0 0 127 0"/>
<feOffset dx="-15" dy="-15"/>
<feGaussianBlur stdDeviation="15"/>
<feColorMatrix type="matrix" values="0 0 0 0 1 0 0 0 0 1 0 0 0 0 1 0 0 0 1 0"/>
<feBlend mode="normal" in2="BackgroundImageFix" result="effect1_dropShadow"/>
<feColorMatrix in="SourceAlpha" type="matrix" values="0 0 0 0 0 0 0 0 0 0 0 0 0 0 0 0 0 0 127 0"/>
<feOffset dx="15" dy="15"/>
<feGaussianBlur stdDeviation="15"/>
<feColorMatrix type="matrix" values="0 0 0 0 0.764706 0 0 0 0 0.764706 0 0 0 0 0.764706 0 0 0 1 0"/>
<feBlend mode="normal" in2="effect1_dropShadow" result="effect2_dropShadow"/>
<feBlend mode="normal" in="SourceGraphic" in2="effect2_dropShadow" result="shape"/>
</filter>
</defs>
</svg>
