<svg width="169" height="150" viewBox="0 0 169 150" fill="none" xmlns="http://www.w3.org/2000/svg">
<path d="M168.437 75.0172C168.437 63.859 154.463 53.2845 133.04 46.7269C137.984 24.8913 135.786 7.51888 126.104 1.95697C123.873 0.652322 121.263 0.0343323 118.414 0.0343323V7.69055C119.993 7.69055 121.263 7.99954 122.328 8.5832C126.997 11.2612 129.023 21.458 127.443 34.5731C127.066 37.8004 126.448 41.1994 125.692 44.667C118.963 43.019 111.616 41.7487 103.891 40.9247C99.2561 34.5731 94.4495 28.8052 89.6086 23.7583C100.801 13.3555 111.307 7.65621 118.448 7.65621V0C109.007 0 96.6468 6.72923 84.1497 18.4024C71.6525 6.7979 59.2927 0.137332 49.8512 0.137332V7.79354C56.9581 7.79354 67.4983 13.4585 78.6908 23.7926C73.8842 28.8396 69.0776 34.5731 64.5113 40.9247C56.7521 41.7487 49.4049 43.019 42.6757 44.7013C41.886 41.268 41.3024 37.9377 40.8904 34.7448C39.2767 21.6297 41.268 11.4328 45.9029 8.72053C46.9329 8.10254 48.2719 7.82788 49.8512 7.82788V0.171664C46.9673 0.171664 44.358 0.789654 42.092 2.0943C32.4445 7.65621 30.2815 24.9943 35.2598 46.7613C13.9048 53.3532 0 63.8933 0 75.0172C0 86.1753 13.9734 96.7498 35.3971 103.307C30.4532 125.143 32.6505 142.515 42.3323 148.077C44.564 149.382 47.1733 150 50.0572 150C59.4987 150 71.8585 143.271 84.3557 131.598C96.8528 143.202 109.213 149.863 118.654 149.863C121.538 149.863 124.147 149.245 126.413 147.94C136.061 142.378 138.224 125.04 133.246 103.273C154.532 96.7155 168.437 86.141 168.437 75.0172ZM123.735 52.1172C122.465 56.5461 120.886 61.1124 119.1 65.6786C117.693 62.932 116.217 60.1854 114.603 57.4388C113.024 54.6921 111.341 52.0142 109.659 49.4049C114.534 50.1259 119.238 51.0185 123.735 52.1172ZM108.011 88.6816C105.333 93.3165 102.586 97.7111 99.7368 101.797C94.6212 102.243 89.4369 102.483 84.2184 102.483C79.0341 102.483 73.8498 102.243 68.7686 101.831C65.919 97.7455 63.138 93.3852 60.4601 88.7846C57.8508 84.287 55.4818 79.7208 53.3188 75.1202C55.4475 70.5196 57.8508 65.919 60.4257 61.4214C63.1037 56.7864 65.8503 52.3918 68.6999 48.3062C73.8155 47.8599 78.9998 47.6196 84.2184 47.6196C89.4026 47.6196 94.5869 47.8599 99.6681 48.2719C102.518 52.3575 105.299 56.7178 107.977 61.3184C110.586 65.816 112.955 70.3822 115.118 74.9828C112.955 79.5834 110.586 84.184 108.011 88.6816ZM119.1 84.2183C120.954 88.8189 122.534 93.4195 123.838 97.8828C119.341 98.9815 114.603 99.9084 109.693 100.629C111.376 97.9858 113.058 95.2735 114.637 92.4926C116.217 89.7459 117.693 86.965 119.1 84.2183ZM84.287 120.851C81.0941 117.555 77.9011 113.882 74.7425 109.865C77.8324 110.002 80.9911 110.105 84.184 110.105C87.4113 110.105 90.6043 110.037 93.7285 109.865C90.6386 113.882 87.4456 117.555 84.287 120.851ZM58.7434 100.629C53.8682 99.9084 49.1646 99.0158 44.667 97.9171C45.9373 93.4882 47.5166 88.9219 49.3019 84.3557C50.7095 87.1023 52.1859 89.8489 53.7995 92.5956C55.4131 95.3422 57.0611 98.0201 58.7434 100.629ZM84.1154 29.1829C87.3083 32.4788 90.5012 36.1524 93.6599 40.1694C90.5699 40.032 87.4113 39.929 84.2184 39.929C80.9911 39.929 77.7981 39.9977 74.6738 40.1694C77.7638 36.1524 80.9567 32.4788 84.1154 29.1829ZM58.7091 49.4049C57.0268 52.0485 55.3445 54.7608 53.7652 57.5418C52.1858 60.2884 50.7095 63.035 49.3019 65.7816C47.4479 61.181 45.8686 56.5805 44.564 52.1172C49.0616 51.0529 53.7995 50.1259 58.7091 49.4049ZM27.6379 92.3896C15.4841 87.2053 7.62188 80.4074 7.62188 75.0172C7.62188 69.6269 15.4841 62.7947 27.6379 57.6448C30.5905 56.3745 33.8178 55.2415 37.1481 54.1772C39.1051 60.9064 41.68 67.9103 44.873 75.0858C41.7143 82.2271 39.1737 89.1966 37.2511 95.8915C33.8521 94.8272 30.6249 93.6599 27.6379 92.3896ZM46.1089 141.451C41.4397 138.773 39.4141 128.576 40.9934 115.461C41.371 112.234 41.989 108.835 42.7443 105.367C49.4736 107.015 56.8208 108.286 64.5457 109.11C69.1806 115.461 73.9872 121.229 78.8281 126.276C67.6356 136.679 57.1298 142.378 49.9885 142.378C48.4436 142.344 47.1389 142.035 46.1089 141.451ZM127.546 115.29C129.16 128.405 127.169 138.602 122.534 141.314C121.504 141.932 120.165 142.206 118.585 142.206C111.479 142.206 100.938 136.542 89.7459 126.207C94.5525 121.16 99.3591 115.427 103.925 109.075C111.685 108.251 119.032 106.981 125.761 105.299C126.551 108.766 127.169 112.097 127.546 115.29ZM140.764 92.3896C137.812 93.6599 134.585 94.7929 131.254 95.8572C129.297 89.1279 126.722 82.124 123.529 74.9485C126.688 67.8073 129.229 60.8377 131.151 54.1428C134.55 55.2071 137.778 56.3745 140.799 57.6448C152.953 62.829 160.815 69.6269 160.815 75.0172C160.78 80.4074 152.918 87.2396 140.764 92.3896Z" fill="#61DAFB"/>
<path d="M84.184 90.7073C92.8494 90.7073 99.8741 83.6826 99.8741 75.0172C99.8741 66.3518 92.8494 59.3271 84.184 59.3271C75.5186 59.3271 68.4939 66.3518 68.4939 75.0172C68.4939 83.6826 75.5186 90.7073 84.184 90.7073Z" fill="#61DAFB"/>
</svg>
