<svg width="148" height="148" viewBox="0 0 148 148" fill="none" xmlns="http://www.w3.org/2000/svg">
<path d="M58.865 40.565C57.47 36.845 55.85 37.115 54.785 37.07C53.705 37.025 52.775 37.055 51.32 37.07C50.09 37.085 48.08 37.4 46.325 39.17C44.57 40.94 39.635 45.185 39.305 54.17C38.96 63.17 45.23 72.095 46.115 73.355C46.985 74.615 58.085 94.1 76.535 102.125C94.985 110.135 95.075 107.69 98.465 107.525C101.855 107.345 109.535 103.505 111.23 99.305C112.925 95.09 113.06 91.43 112.625 90.65C112.19 89.87 110.99 89.36 109.175 88.385C107.36 87.395 98.48 82.64 96.815 81.965C95.15 81.29 93.935 80.945 92.63 82.73C91.325 84.515 87.65 88.49 86.525 89.675C85.4 90.86 84.32 90.965 82.52 89.975C80.72 89 74.855 86.84 68.045 80.36C62.75 75.32 59.285 69.185 58.28 67.325C57.275 65.45 58.28 64.505 59.225 63.62C60.08 62.825 61.145 61.55 62.105 60.515C63.065 59.48 63.395 58.73 64.055 57.53C64.715 56.33 64.445 55.25 64.025 54.32C63.605 53.42 60.26 44.285 58.865 40.565Z" fill="#6BFF53"/>
<path d="M75.335 11C91.82 11 107.315 17.36 118.97 28.925C130.595 40.46 137 55.805 137 72.11C137 88.415 130.595 103.745 118.97 115.295C107.315 126.86 91.82 133.22 75.335 133.22C64.895 133.22 54.59 130.595 45.5 125.6L41.555 123.44L37.265 124.805L17.105 131.21L23.465 112.46L25.04 107.81L22.49 103.625C16.715 94.145 13.67 83.24 13.67 72.11C13.67 55.805 20.075 40.46 31.7 28.925C43.355 17.36 58.85 11 75.335 11ZM75.335 0.5C35.48 0.5 3.17 32.555 3.17 72.11C3.17 85.64 6.95 98.285 13.52 109.085L0.5 147.5L40.46 134.81C50.795 140.48 62.69 143.72 75.335 143.72C115.19 143.72 147.5 111.65 147.5 72.11C147.5 32.555 115.19 0.5 75.335 0.5Z" fill="#6BFF53"/>
</svg>
